<svg width="64" height="167" viewBox="0 0 64 167" fill="none" xmlns="http://www.w3.org/2000/svg">
<path d="M29.814 2.01228C29.5252 2.44993 27.6005 9.08099 25.5534 16.7309C21.5635 31.8013 21.6024 31.5756 23.3536 33.6123C24.3006 34.7249 26.7033 35.3696 28.079 34.8801C30.471 34.0409 30.6475 33.7019 33.0495 24.9666L35.2399 16.8615L39.1455 23.9192C45.3543 35.2008 48.5086 43.3019 50.5009 53.259C52.3883 62.5656 52.3638 70.4363 50.4954 78.22C49.7288 81.4056 48.0462 86.1699 47.5639 86.4483C47.4624 86.5069 47.2092 86.0097 46.9988 85.3523C46.3942 83.6018 43.1389 77.9634 41.8705 76.5284C36.0247 69.7443 28.0631 66.857 19.7194 68.5248C9.0509 70.6206 1.33758 79.4762 0.770887 90.3351C0.616246 92.9981 0.862638 95.1247 1.66625 98.2165C2.31422 100.687 5.46294 106.082 7.36249 107.965C13.5761 114.097 21.6719 116.162 30.4087 113.827C31.4037 113.557 33.86 112.478 36.0761 111.334L39.9713 109.288L38.8606 113.519C35.5245 126.146 27.6305 138.323 16.2939 148.288C12.7529 151.416 9.98852 153.486 5.24724 156.529C2.05029 158.611 1.42364 159.109 1.08915 159.877C0.341192 161.63 0.404322 162.677 1.32813 164.277C2.25193 165.877 3.12727 166.456 5.04437 166.669C5.95752 166.786 6.39295 166.602 9.88093 164.554C17.796 159.917 25.9548 153.005 32.2423 145.549C35.2938 141.924 40.06 134.939 42.0743 131.101C46.9427 121.89 49.7812 111.684 49.9615 102.91C50.0282 100.095 50.0135 100.07 51.5387 98.1393C61.6498 85.0547 64.0386 65.8631 58.1657 44.9055C55.6291 35.9399 52.8527 29.3139 47.4435 19.5347L43.4313 12.2337L51.4657 14.3679C60.1155 16.6886 60.5227 16.6905 62.4455 15.0386C63.5572 14.0919 64.2003 11.6888 63.7102 10.3124C62.822 7.77747 63.0369 7.85659 47.9907 3.77678C40.2219 1.69244 33.637 0.0759811 33.0628 0.136566C31.7983 0.290958 30.5546 1.009 29.814 2.01228ZM21.3987 77.6467C22.2668 77.4504 23.9425 77.3633 25.1427 77.4493C30.5618 77.8085 35.3102 81.6367 37.9135 87.787C39.0899 90.528 40.3723 95.68 40.1151 96.6412C39.6435 98.4035 31.3725 103.89 27.792 104.84C21.0705 106.621 15.2567 104.288 11.884 98.4466C8.83402 93.1638 9.84728 86.0092 14.2869 81.448C15.6981 80.0237 19.1833 78.147 21.3987 77.6467Z" fill="#06B1FB"/>
</svg>
