<svg width="36" height="36" viewBox="0 0 36 36" fill="none" xmlns="http://www.w3.org/2000/svg">
<path d="M16.5441 0.0700417C10.5538 0.560299 5.2222 3.97679 2.26533 9.23175C-0.216609 13.6441 -0.683887 19.0446 0.986057 23.8782C1.87465 26.4368 3.19222 28.5587 5.12261 30.535C10.5231 36.0734 18.8499 37.5289 25.8131 34.1507C29.5743 32.3199 32.692 29.1025 34.3543 25.3413C37.0967 19.1442 36.2081 12.135 32.0102 6.78812C31.0221 5.53183 29.061 3.75464 27.6898 2.88137C26.1654 1.90851 24.2733 1.07354 22.5957 0.636902C21.3241 0.29985 20.4738 0.161964 19.1869 0.0623817C18.0379 -0.0218849 17.6625 -0.0218849 16.5441 0.0700417ZM10.5538 13.284C10.684 13.353 12.4076 15.0153 14.3839 16.9763L17.9613 20.5537L21.5463 16.9763C23.515 15.0153 25.2462 13.3453 25.3917 13.2687C25.6752 13.1232 26.2803 13.0849 26.6404 13.1845C27.031 13.2917 27.529 13.8279 27.6592 14.2875C27.8047 14.7778 27.7588 15.1302 27.4983 15.5745C27.2149 16.0494 18.9801 24.2383 18.6354 24.3838C18.2677 24.5294 17.6549 24.5294 17.2872 24.3838C16.9271 24.2306 8.69997 16.0417 8.40122 15.5362C8.23269 15.2604 8.19439 15.0995 8.20205 14.7318C8.20205 14.4714 8.26333 14.1726 8.33228 14.0348C8.49314 13.7207 9.0217 13.2534 9.28215 13.1921C9.40472 13.1691 9.53494 13.1385 9.57324 13.1155C9.71879 13.0619 10.3086 13.1615 10.5538 13.284Z" fill="#FFB300"/>
</svg>
