<svg width="30" height="30" viewBox="0 0 30 30" fill="none" xmlns="http://www.w3.org/2000/svg">
<path d="M10.5842 0.27244C7.59851 1.26376 5.29325 2.86512 3.16397 5.42261C2.80615 5.85668 2.00254 7.12956 1.64473 7.84519C0.823514 9.45242 0.301458 11.1594 0.0785573 12.9484C-0.0387587 13.8635 -0.0211613 15.9283 0.107886 16.7905C0.600613 20.181 2.02014 23.0435 4.38405 25.4367C6.7597 27.8358 9.72193 29.3199 13.1358 29.8185C13.9805 29.9417 16.0629 29.9592 16.9193 29.8478C21.3127 29.2905 25.1431 26.997 27.6302 23.4482C28.2931 22.5038 28.909 21.3424 29.3254 20.2689C29.5953 19.5709 30 18.2042 30 17.9813C30 17.7349 29.7888 17.3595 29.5718 17.2305C29.1025 16.943 28.7447 17.0193 28.0467 17.5472C26.1344 19.0078 24.1577 19.7645 21.8113 19.9287C20.8963 19.9991 20.4563 19.9815 19.4416 19.8349C15.0187 19.1955 11.3878 15.9693 10.1971 11.611C9.70433 9.7985 9.6926 7.68094 10.1736 5.82735C10.5666 4.30224 11.0417 3.33439 12.1973 1.69783C12.5082 1.25789 12.5492 0.947008 12.3322 0.559864C12.0272 0.0260773 11.5638 -0.0560436 10.5842 0.27244Z" fill="#F0F0F0"/>
</svg>
