<svg width="641" height="503" viewBox="0 0 641 503" fill="none" xmlns="http://www.w3.org/2000/svg">
<g clip-path="url(#clip0_30_112)">
<path d="M447.918 228.633C447.199 255.467 442.704 282.066 434.564 307.646C434.384 308.239 434.184 308.824 433.989 309.418H384.159C384.212 308.885 384.266 308.292 384.318 307.646C387.641 269.45 368.66 39.7543 345.757 0C347.763 3.22482 451.781 107.27 447.918 228.633Z" fill="#F0F0F0"/>
<path d="M444.179 307.646C443.762 308.239 443.329 308.833 442.885 309.418H405.502C405.785 308.912 406.114 308.319 406.494 307.646C412.67 296.501 430.948 263.178 447.914 228.633C466.14 191.51 482.876 152.979 481.466 139.034C481.903 142.177 494.52 238.06 444.179 307.646Z" fill="#F0F0F0"/>
<path d="M623.328 503H163.128C158.443 502.995 153.952 501.131 150.639 497.819C147.327 494.506 145.463 490.015 145.458 485.33V262.298C145.463 257.614 147.327 253.122 150.639 249.81C153.952 246.497 158.443 244.634 163.128 244.628H623.328C628.012 244.634 632.504 246.497 635.816 249.81C639.129 253.122 640.992 257.614 640.997 262.298V485.33C640.992 490.015 639.129 494.506 635.816 497.819C632.504 501.131 628.012 502.995 623.328 503Z" fill="#3F3D56"/>
<path d="M565.093 373.029H220.49V374.599H565.093V373.029Z" fill="#F0F0F0"/>
<path d="M565.093 404.442H220.49V406.013H565.093V404.442Z" fill="#F0F0F0"/>
<path d="M565.093 435.855H220.49V437.425H565.093V435.855Z" fill="#F0F0F0"/>
<g opacity="0.2">
<path d="M564.804 360.238C554.575 349.178 537.484 347.099 522.796 350.452C508.108 353.805 494.922 361.65 481.265 368.011C467.609 374.373 452.446 379.39 437.651 376.544C423.365 373.796 411.563 364.189 399.311 356.346C387.058 348.503 372.129 342.04 358.274 346.478C341.125 351.971 333.223 371.169 320.905 384.304C314.538 391.092 306.754 396.395 298.106 399.836C289.458 403.276 280.159 404.769 270.869 404.209C261.579 403.649 252.526 401.05 244.354 396.596C236.182 392.142 229.091 385.942 223.586 378.438V437.132H563.905L564.804 360.238Z" fill="#FFB300"/>
</g>
<path d="M565.093 310.203H220.49V311.774H565.093V310.203Z" fill="#F0F0F0"/>
<path d="M565.093 341.616H220.49V343.187H565.093V341.616Z" fill="#F0F0F0"/>
<path d="M222.569 379.032C237.248 398.858 262.626 409.04 286.9 404.267C299.119 401.862 310.403 396.033 319.437 387.46C327.589 379.662 333.195 369.724 340.42 361.142C343.92 356.985 347.834 353.094 352.549 350.33C357.939 347.205 364.155 345.801 370.366 346.304C384.257 347.312 396.189 355.601 407.385 363.118C418.266 370.424 429.717 377.526 443.136 378.428C457.255 379.378 470.983 374.202 483.519 368.248C496.348 362.154 508.856 354.901 522.812 351.657C534.182 349.014 547.117 349.514 557.323 355.669C559.776 357.156 562.013 358.974 563.971 361.071C565.012 362.178 566.675 360.51 565.637 359.406C557.752 351.019 546.148 347.664 534.883 347.817C521.739 347.997 509.404 353.036 497.731 358.658C484.757 364.907 472.016 372.088 457.757 374.988C450.687 376.545 443.364 376.567 436.284 375.051C429.788 373.546 423.762 370.595 418.066 367.191C406.606 360.343 396.239 351.676 383.6 346.968C371.984 342.64 359.286 342.57 348.872 349.899C339.908 356.209 333.937 365.746 327.499 374.402C324.171 379.066 320.375 383.379 316.17 387.272C311.339 391.545 305.881 395.051 299.987 397.669C288.331 402.912 275.338 404.417 262.792 401.977C250.63 399.509 239.452 393.544 230.631 384.814C228.449 382.646 226.434 380.316 224.603 377.843C223.711 376.638 221.665 377.812 222.569 379.032Z" fill="#FFB300"/>
<path d="M368.298 353.616C372.635 353.616 376.151 350.1 376.151 345.763C376.151 341.425 372.635 337.909 368.298 337.909C363.961 337.909 360.445 341.425 360.445 345.763C360.445 350.1 363.961 353.616 368.298 353.616Z" fill="#FFB300"/>
<path d="M533.216 355.972C537.553 355.972 541.069 352.456 541.069 348.119C541.069 343.781 537.553 340.265 533.216 340.265C528.879 340.265 525.363 343.781 525.363 348.119C525.363 352.456 528.879 355.972 533.216 355.972Z" fill="#FFB300"/>
<path d="M279.556 411.73C283.894 411.73 287.41 408.214 287.41 403.877C287.41 399.539 283.894 396.023 279.556 396.023C275.219 396.023 271.703 399.539 271.703 403.877C271.703 408.214 275.219 411.73 279.556 411.73Z" fill="#FFB300"/>
<path d="M110.961 167.663C109.967 168.077 109.076 168.704 108.351 169.499C107.625 170.295 107.083 171.239 106.762 172.267C106.441 173.295 106.35 174.38 106.494 175.447C106.638 176.514 107.014 177.536 107.596 178.442L85.3369 210.243L92.3177 218.121L118.256 180.431C119.713 179.352 120.723 177.777 121.096 176.003C121.469 174.229 121.178 172.38 120.279 170.807C119.38 169.233 117.935 168.044 116.217 167.464C114.5 166.885 112.63 166.956 110.961 167.663Z" fill="#FFB6B6"/>
<path d="M127.504 492.504H117.876L113.296 455.368L127.506 455.368L127.504 492.504Z" fill="#FFB6B6"/>
<path d="M129.959 501.837L98.915 501.836V501.443C98.9153 498.239 100.188 495.165 102.454 492.899C104.72 490.633 107.794 489.36 110.998 489.36H110.999L129.96 489.361L129.959 501.837Z" fill="black"/>
<path opacity="0.1" d="M16.9859 498.692L16.6011 498.637L17.0251 498.716L16.9859 498.692Z" fill="black"/>
<path d="M102.893 355.752L112.938 482.495H130L134.708 355.752H102.893Z" fill="#FFB300"/>
<path d="M129.594 224.402L122.795 220.969L99.4214 219.447L101.879 207.771H83.4401L76.3384 232.271L119.51 240.223L129.594 224.402Z" fill="#06B1FB"/>
<path d="M142.06 209.549C154.612 209.549 164.787 199.374 164.787 186.822C164.787 174.27 154.612 164.095 142.06 164.095C129.508 164.095 119.333 174.27 119.333 186.822C119.333 199.374 129.508 209.549 142.06 209.549Z" fill="black"/>
<path d="M142.781 211.536C153.434 211.536 162.069 202.9 162.069 192.247C162.069 181.595 153.434 172.959 142.781 172.959C132.128 172.959 123.493 181.595 123.493 192.247C123.493 202.9 132.128 211.536 142.781 211.536Z" fill="#FFB6B6"/>
<path d="M122.514 180.115C126.921 183.153 132.153 184.77 137.506 184.748C135.597 186.072 133.423 186.967 131.134 187.37C138.252 188.897 145.608 188.938 152.742 187.491C154.327 187.237 155.858 186.711 157.265 185.938C157.966 185.546 158.577 185.011 159.058 184.368C159.539 183.724 159.88 182.987 160.057 182.204C160.531 179.495 158.421 177.035 156.228 175.377C152.87 172.877 148.999 171.154 144.893 170.334C140.788 169.514 136.552 169.616 132.492 170.634C129.84 171.319 127.184 172.477 125.462 174.606C123.74 176.736 123.229 180.018 124.87 182.211L122.514 180.115Z" fill="black"/>
<path d="M117.581 419.722L112.433 427.858L78.6016 411.873L86.1996 399.866L117.581 419.722Z" fill="#FFB6B6"/>
<path d="M126.781 422.637L110.182 448.871L109.85 448.661C107.142 446.947 105.226 444.228 104.522 441.102C103.819 437.975 104.386 434.698 106.099 431.989L116.238 415.966L126.781 422.637Z" fill="black"/>
<path d="M168.37 214.157L122.795 220.969L114.963 239.056C114.963 239.056 97.5196 247.124 109.12 266.491L95.5968 315.539C95.5968 315.539 32.3342 347.639 33.5309 369.169C34.7276 390.699 99.5391 426.114 99.5391 426.114L108.624 411.418L71.1811 374.329L106.238 363.165L133.889 364.473C133.889 364.473 163.931 340.98 146.056 301.835L158.383 265.71L168.37 214.157Z" fill="#FFB300"/>
<path d="M134.842 325.474C135.918 325.434 136.972 325.158 137.93 324.667C138.887 324.175 139.726 323.48 140.386 322.629C141.046 321.779 141.511 320.794 141.749 319.744C141.988 318.694 141.993 317.605 141.764 316.553L173.74 294.546L169.955 284.723L132.473 310.961C130.731 311.462 129.233 312.584 128.264 314.116C127.294 315.647 126.919 317.481 127.211 319.27C127.503 321.058 128.442 322.678 129.848 323.822C131.254 324.965 133.031 325.553 134.842 325.474Z" fill="#FFB6B6"/>
<path d="M158.226 221.523L167.584 214.157C167.584 214.157 179.981 223.537 179.997 230.549C180.012 237.561 182.072 293.204 182.072 293.204L165.358 305.177L149.729 295.693L160.472 281.99L155.407 250.017L158.226 221.523Z" fill="#06B1FB"/>
<path d="M299.994 502.607H0.785324C0.577043 502.607 0.377292 502.525 0.230015 502.377C0.0827387 502.23 0 502.03 0 501.822C0 501.614 0.0827387 501.414 0.230015 501.267C0.377292 501.119 0.577043 501.037 0.785324 501.037H299.994C300.202 501.037 300.402 501.119 300.549 501.267C300.696 501.414 300.779 501.614 300.779 501.822C300.779 502.03 300.696 502.23 300.549 502.377C300.402 502.525 300.202 502.607 299.994 502.607Z" fill="#3F3D56"/>
<line x1="110.402" y1="238.931" x2="104.448" y2="266.941" stroke="white" stroke-width="9"/>
<line x1="114.434" y1="239.325" x2="112.38" y2="241.73" stroke="white"/>
</g>
<defs>
<clipPath id="clip0_30_112">
<rect width="640.997" height="503" fill="white"/>
</clipPath>
</defs>
</svg>
