<svg width="30" height="30" viewBox="0 0 30 30" fill="none" xmlns="http://www.w3.org/2000/svg">
<path d="M13.5659 0.0400066C10.7183 0.333504 8.02916 1.41944 5.73344 3.19216C5.08171 3.69111 3.69018 5.08228 3.19111 5.73385C2.26343 6.92544 1.37685 8.5162 0.877777 9.86628C0.60182 10.6176 0.249535 12.0205 0.114493 12.9186C-0.0381642 13.9048 -0.0381642 16.0943 0.114493 17.0863C0.249535 17.9727 0.60182 19.3814 0.883648 20.1445C1.38272 21.5005 2.26343 23.0795 3.19111 24.2711C3.6667 24.8874 5.01125 26.2434 5.61014 26.7189C6.82552 27.6757 8.47539 28.609 9.86104 29.1197C10.6243 29.4014 12.0335 29.7536 12.9201 29.8886C13.789 30.0178 16.0436 30.0413 16.8539 29.9239C19.6546 29.5188 21.8916 28.5972 24.1638 26.895C24.8038 26.4195 26.2129 25.0401 26.7237 24.3944C27.669 23.191 28.6261 21.5064 29.1252 20.1445C29.407 19.3814 29.7593 17.9727 29.8943 17.0863C29.9765 16.558 30 16.0356 30 15.0025C30 13.9694 29.9765 13.4469 29.8943 12.9186C29.7593 12.0323 29.407 10.6235 29.1252 9.86041C28.6143 8.47511 27.6749 6.81978 26.7237 5.61057C26.2423 5.00597 24.886 3.66176 24.2812 3.19216C22.1206 1.53097 19.8072 0.538952 17.1181 0.122187C16.3783 0.0106583 14.3174 -0.0421734 13.5659 0.0400066ZM14.1237 4.05504V6.19757H12.3036C11.0412 6.19757 10.4834 6.17996 10.4834 6.133C10.4834 6.00973 11.2173 4.63617 11.5638 4.11374C12.0452 3.38 12.967 2.47016 13.5365 2.15905C13.7773 2.02405 14.0121 1.91252 14.0532 1.91252C14.1061 1.91252 14.1237 2.38211 14.1237 4.05504ZM16.255 2.03578C17.0066 2.4232 17.8403 3.20977 18.4451 4.11374C18.7856 4.6303 19.5254 6.00973 19.5254 6.133C19.5254 6.17996 18.9676 6.19757 17.7053 6.19757H15.8851V4.05504C15.8851 2.61104 15.9027 1.91252 15.9438 1.91252C15.9791 1.91252 16.12 1.97121 16.255 2.03578ZM10.4423 2.62865C10.4188 2.66974 10.2251 2.95737 10.0196 3.2626C9.62031 3.8672 9.12712 4.80053 8.77483 5.63993L8.55172 6.16822L6.84901 6.18583C5.86848 6.1917 5.14042 6.17409 5.14042 6.14474C5.14042 6.06843 6.20315 5.07054 6.71984 4.65965C7.64752 3.92003 8.72786 3.26847 9.83756 2.78127C10.3719 2.54647 10.5186 2.51125 10.4423 2.62865ZM19.9951 2.71083C21.0696 3.1452 22.3378 3.89655 23.3125 4.67139C23.835 5.08815 24.8684 6.06843 24.8684 6.15061C24.8684 6.17409 24.0992 6.1917 23.1598 6.18583L21.4571 6.16822L21.234 5.63993C20.8817 4.80053 20.3885 3.8672 19.9892 3.2626C19.4902 2.52299 19.5137 2.55821 19.5724 2.55821C19.6017 2.55821 19.7896 2.62865 19.9951 2.71083ZM7.9587 7.98203C7.9587 7.99377 7.88238 8.32836 7.78843 8.72751C7.44789 10.1598 7.31285 11.1283 7.10148 13.7522L7.06625 14.122H4.42998H1.79372V13.8872C1.79372 13.5233 1.95812 12.5136 2.12252 11.8386C2.41609 10.6529 2.89754 9.46126 3.50817 8.38119L3.75477 7.95855H5.85674C7.01341 7.95855 7.9587 7.97029 7.9587 7.98203ZM14.1237 11.0403V14.122H11.4816H8.83354L8.86877 13.6641C9.0273 11.5568 9.19757 10.3887 9.54986 8.9447L9.79646 7.95855H11.9571H14.1237V11.0403ZM20.459 8.9447C20.8112 10.3946 20.9991 11.6977 21.1342 13.6641L21.1694 14.122H18.5273H15.8851V11.0403V7.95855H18.0517H20.2123L20.459 8.9447ZM26.5241 8.43989C27.0995 9.473 27.399 10.1774 27.716 11.2164C27.9391 11.9501 28.2151 13.4176 28.2151 13.8637V14.122H25.5788H22.9426L22.9073 13.7522C22.8897 13.5526 22.8486 13.0184 22.8134 12.5665C22.7136 11.2457 22.373 9.1795 22.0736 8.08769L22.0384 7.95855H24.1462H26.254L26.5241 8.43989ZM7.10148 16.2469C7.31285 18.8766 7.44789 19.8452 7.78843 21.2774C7.88238 21.6766 7.9587 22.0112 7.9587 22.0229C7.9587 22.0347 7.01341 22.0464 5.85674 22.0464H3.7489L3.44946 21.5005C2.82122 20.3617 2.41609 19.3521 2.12252 18.1664C1.95812 17.4913 1.79372 16.4817 1.79372 16.1178V15.883H4.42998H7.06625L7.10148 16.2469ZM14.1237 18.9647V22.0464H11.9571H9.79646L9.54986 21.0603C9.19757 19.6162 9.0273 18.4481 8.86877 16.335L8.83354 15.883H11.4816H14.1237V18.9647ZM21.1342 16.335C20.9874 18.5244 20.7584 19.9743 20.3122 21.6472L20.2065 22.0464H18.0458H15.8851V18.9647V15.883H18.5273H21.1694L21.1342 16.335ZM28.2151 16.1295C28.2151 16.4876 28.0096 17.6909 27.8393 18.3483C27.5516 19.4401 27.1582 20.4263 26.5593 21.5005L26.2599 22.0464H24.1462H22.0384L22.0736 21.9114C22.373 20.8255 22.7136 18.7592 22.8134 17.4385C22.8486 16.9865 22.8897 16.4524 22.9073 16.2469L22.9426 15.883H25.5788H28.2151V16.1295ZM8.77483 24.365C9.12712 25.2044 9.6849 26.2551 10.0959 26.8597C10.3073 27.165 10.4541 27.4233 10.4306 27.435C10.3601 27.4585 9.46179 27.0652 8.79832 26.713C8.11136 26.3491 7.35982 25.856 6.71984 25.3453C6.20315 24.9344 5.14042 23.9365 5.14042 23.8602C5.14042 23.8309 5.86848 23.8133 6.84901 23.8191L8.55172 23.8367L8.77483 24.365ZM14.1237 25.9499C14.1237 27.3939 14.1061 28.0924 14.065 28.0924C13.9652 28.0924 13.5424 27.8635 13.1843 27.6228C12.7322 27.3117 11.9806 26.5134 11.5638 25.8912C11.2232 25.3747 10.4834 23.9952 10.4834 23.872C10.4834 23.825 11.0412 23.8074 12.3036 23.8074H14.1237V25.9499ZM19.5254 23.872C19.5254 23.9952 18.8208 25.316 18.4685 25.8442C18.0517 26.4841 17.2825 27.3117 16.8245 27.6228C16.4664 27.8635 16.0436 28.0924 15.9438 28.0924C15.9027 28.0924 15.8851 27.3939 15.8851 25.9499V23.8074H17.7053C18.9676 23.8074 19.5254 23.825 19.5254 23.872ZM24.8155 23.913C24.6453 24.23 23.2537 25.4275 22.3319 26.0497C21.5334 26.5839 19.7368 27.4878 19.5782 27.435C19.5548 27.4233 19.7015 27.165 19.9129 26.8597C20.3944 26.1554 21.0637 24.8522 21.4101 23.9365L21.463 23.8074H23.1657C24.7862 23.8074 24.8684 23.8133 24.8155 23.913Z" fill="#F0F0F0"/>
</svg>
