<svg width="110" height="155" viewBox="0 0 110 155" fill="none" xmlns="http://www.w3.org/2000/svg">
<path d="M5.50954 0.874315C5.09419 1.13513 4.79326 1.61366 4.63872 2.28983C4.45445 3.09603 4.29099 3.33231 3.84516 3.36724C2.97952 3.44304 2.73135 4.28938 2.59839 7.6249C2.536 9.33464 2.26409 12.2006 1.98399 14.0247C-1.36758 35.7528 2.76927 58.481 14.2303 81.1318C16.5635 85.7698 23.8061 97.304 26.8838 101.319C42.4048 121.531 61.1342 135.609 81.594 142.474C82.8126 142.89 83.8692 143.295 83.9293 143.391C84.0297 143.551 81.6081 146.363 78.0371 150.254C75.9923 152.496 75.7798 153.186 76.9256 154.159C77.5705 154.69 77.8826 154.761 81.068 154.833C82.9457 154.879 86.1527 154.736 88.1678 154.54C92.7279 154.104 108.045 151.503 108.864 151.033C109.177 150.858 109.506 150.496 109.56 150.262C109.697 149.664 108.925 143.822 108.17 139.819C107.276 134.99 105.045 124.519 104.822 124.058C104.702 123.866 104.243 123.597 103.801 123.496C103.125 123.341 102.542 123.618 99.9736 125.276C96.4932 127.572 93.4609 129.944 91.8329 131.679L90.6857 132.867L86.2943 131.727C81.6228 130.495 79.1893 129.528 75.2036 127.331C62.2314 120.152 50.532 107.763 33.51 83.1028C17.168 59.4185 8.36335 38.1958 6.22978 17.2391C5.72741 12.2533 5.79055 10.8995 6.69847 5.25083C7.22376 2.11443 7.26016 1.35653 6.95551 1.01325C6.43239 0.428485 6.24441 0.412879 5.50954 0.874315ZM6.82824 39.4048C12.4065 57.263 25.3811 79.8766 41.8666 100.419C54.6152 116.359 66.6192 127.175 76.2639 131.432C79.4702 132.849 84.2175 133.989 87.1629 134.032C88.3028 134.074 89.2487 134.126 89.2628 134.184C89.2769 134.242 89.4337 134.634 89.5726 135.103C89.8944 135.97 90.737 136.354 91.538 135.963C91.7877 135.828 93.5085 134.525 95.375 133.063C97.2415 131.602 99.4595 129.92 100.314 129.294L101.909 128.181L102.881 133.028C104.497 140.922 105.573 147.353 105.4 148.107C105.323 148.445 104.949 148.524 99.4984 149.385C90.4994 150.804 82.0852 151.699 81.8043 151.252C81.73 151.098 83.0875 149.11 85.602 145.771C86.7425 144.253 86.9476 143.835 86.8324 143.261C86.7536 142.887 86.585 142.548 86.4289 142.512C86.2989 142.482 86.2105 142.271 86.258 142.063C86.3947 141.464 85.7921 141.108 81.2068 139.02C60.2276 129.518 42.213 114.947 28.994 96.8752C25.9059 92.6666 20.2638 83.4685 18.2055 79.3038C11.7134 66.1624 7.61011 52.7461 5.9299 39.1447C5.44167 35.1747 5.51969 35.1925 6.82824 39.4048Z" fill="#FFB300"/>
</svg>
